<?xml version="1.0" standalone="no"?>
<!DOCTYPE svg PUBLIC "-//W3C//DTD SVG 20010904//EN"
 "http://www.w3.org/TR/2001/REC-SVG-20010904/DTD/svg10.dtd">
<svg version="1.0" xmlns="http://www.w3.org/2000/svg"
 width="180" height="180" viewBox="0 0 537.000000 240.000000"
 preserveAspectRatio="xMidYMid meet">

<g transform="translate(0.000000,240.000000) scale(0.100000,-0.100000)"
fill="#1946ba" stroke="none">
<path d="M0 1200 l0 -1200 2685 0 2685 0 0 1200 0 1200 -2685 0 -2685 0 0
-1200z m1498 158 l3 -28 -100 0 c-118 0 -121 -2 -121 -104 0 -77 1 -78 114
-156 42 -29 84 -66 92 -81 9 -19 14 -60 14 -123 0 -92 -1 -97 -29 -128 l-29
-33 -111 -3 -111 -4 0 31 0 30 103 3 102 3 0 100 0 100 -90 67 c-49 36 -95 74
-102 84 -18 24 -17 203 1 226 28 38 67 48 166 46 l95 -3 3 -27z m350 0 l3 -28
-78 0 c-48 0 -84 -5 -91 -12 -17 -17 -17 -529 0 -546 7 -7 43 -12 91 -12 l78
0 -3 -27 c-3 -27 -5 -28 -77 -31 -42 -2 -87 2 -103 9 -57 24 -58 28 -58 332 0
180 4 285 11 298 18 34 67 49 149 46 74 -2 75 -2 78 -29z m172 -112 l0 -144
80 -4 80 -3 0 148 0 148 33 -3 32 -3 0 -340 0 -340 -32 -3 -33 -3 0 170 0 171
-80 0 -80 0 0 -171 0 -170 -32 3 -33 3 -3 330 c-1 181 0 336 3 342 2 7 18 13
35 13 l30 0 0 -144z m631 106 l29 -32 0 -276 0 -276 -34 -34 c-33 -33 -37 -34
-111 -34 -74 0 -78 1 -111 34 l-34 34 0 277 0 277 35 35 35 35 81 -4 c77 -3
82 -5 110 -36z m409 21 c50 -34 49 -32 50 -327 l0 -278 -35 -35 c-35 -35 -35
-35 -115 -31 -71 3 -83 6 -107 31 l-28 27 0 286 0 286 33 29 c29 26 39 29 105
29 52 0 80 -5 97 -17z m260 -298 l0 -315 91 0 90 0 -3 -27 -3 -28 -120 0 -120
0 -2 330 c-2 182 -1 336 2 343 2 6 18 12 35 12 l30 0 0 -315z m528 283 l3 -28
-98 0 c-64 0 -103 -4 -111 -12 -7 -7 -12 -42 -12 -85 0 -83 2 -86 96 -151 118
-80 129 -101 122 -243 -3 -77 -5 -82 -36 -110 -31 -28 -36 -29 -137 -29 l-105
0 0 30 0 30 100 0 c117 0 113 -5 108 125 l-3 80 -90 67 c-49 36 -95 74 -102
84 -9 12 -13 51 -13 113 1 143 21 161 180 158 l95 -2 3 -27z m611 -2 c31 -30
31 -30 31 -135 0 -58 -4 -112 -9 -120 -7 -10 -3 -23 10 -39 17 -22 19 -42 19
-159 l0 -135 -34 -34 -35 -35 -103 3 -103 3 -3 330 c-1 181 0 336 3 343 4 11
27 13 99 10 89 -3 97 -5 125 -32z m268 -96 c24 -69 46 -132 49 -140 3 -8 21
30 39 85 66 190 63 185 96 185 16 0 29 -4 29 -9 0 -5 -29 -94 -65 -197 l-65
-189 1 -145 1 -145 -31 -3 -31 -3 0 150 0 150 -65 187 c-36 103 -65 192 -65
196 0 5 14 8 32 6 31 -3 32 -6 75 -128z m-3797 -149 c0 -203 -3 -271 -12 -278
-7 -6 -65 -38 -128 -71 l-115 -61 -125 68 -125 69 -3 271 -2 271 255 0 255 0
0 -269z m3038 -378 c-2 -22 -8 -28 -28 -28 -20 0 -26 6 -28 28 -3 24 0 27 28
27 28 0 31 -3 28 -27z"/>
<path d="M2460 1311 c-16 -30 -13 -512 3 -535 10 -14 25 -16 77 -14 l65 3 3
260 c1 143 0 270 -3 283 -5 20 -11 22 -70 22 -53 0 -66 -3 -75 -19z"/>
<path d="M2897 1323 c-9 -8 -9 -526 -1 -547 5 -12 21 -16 70 -16 52 0 65 3 74
19 6 12 10 115 10 266 0 151 -4 254 -10 266 -9 16 -22 19 -74 19 -34 0 -66 -3
-69 -7z"/>
<path d="M4300 1218 l0 -113 52 4 c29 1 59 8 66 13 15 13 17 161 2 189 -9 15
-22 19 -65 19 l-55 0 0 -112z"/>
<path d="M4300 905 l0 -145 65 0 c82 0 85 5 85 149 0 134 -5 141 -91 141 l-59
0 0 -145z"/>
<path d="M450 1107 l1 -252 113 -61 114 -60 112 61 c62 34 112 64 111 68 -1 4
-1 117 -1 251 l0 243 -225 2 -225 1 0 -253z m420 87 c0 -114 -2 -125 -16 -113
-12 10 -15 31 -12 111 l3 98 -167 0 -168 0 0 -34 c0 -21 6 -36 15 -40 11 -4
15 1 15 19 l0 25 135 0 135 0 0 -80 c0 -62 -3 -81 -16 -88 -14 -8 -9 -13 27
-33 l44 -24 3 -80 2 -80 -96 -52 -97 -53 -98 53 -99 52 0 148 c0 115 3 148 13
145 8 -3 13 -43 15 -140 l3 -135 52 -28 c28 -15 66 -36 83 -46 l30 -18 83 47
84 47 0 59 c0 44 -5 61 -17 68 -14 8 -16 1 -16 -51 l0 -59 -66 -36 -65 -36
-70 36 -69 36 0 134 0 133 -30 16 c-28 14 -30 20 -30 70 l0 55 195 0 195 0 0
-126z"/>
<path d="M570 1212 c0 -26 168 -117 190 -104 10 6 16 29 18 66 l3 56 -106 0
c-95 0 -105 -2 -105 -18z"/>
<path d="M570 1047 l0 -115 52 -30 51 -30 54 26 53 26 0 61 c0 61 0 62 -37 82
-21 11 -68 37 -105 58 l-68 37 0 -115z"/>
</g>
</svg>
